<?xml version="1.0" encoding="UTF-8"?>
<svg width="159px" height="101px" viewBox="0 0 159 101" version="1.1" xmlns="http://www.w3.org/2000/svg" xmlns:xlink="http://www.w3.org/1999/xlink">
    <title>E04F8DDC-C0EA-47B8-ABFA-B9AB3D340823</title>
    <g id="Page-1" stroke="none" stroke-width="1" fill="none" fill-rule="evenodd">
        <g id="0189_LES_Water-Improvements_Desktop" transform="translate(-492.000000, -545.000000)">
            <g id="Group-17" transform="translate(492.000000, 545.000000)">
                <text id="10k+-Reviews" font-family="OpenSans-Bold, Open Sans" font-size="18" font-weight="bold" letter-spacing="-0.068727273" fill="#000000">
                    <tspan x="20.3225199" y="100">10k+ Reviews</tspan>
                    <tspan x="138.67748" y="100" font-family="OpenSans, Open Sans" font-weight="normal"></tspan>
                </text>
                <g id="Group-15">
                    <g id="Trustpilot_ratings_4halfstar_CMYK" transform="translate(0.000000, 44.000000)">
                        <g id="Group-8">
                            <polygon id="Fill-1" fill="#D9D9DE" points="142.5184 28.981875 157.261682 28.981875 157.261682 0 142.5184 0"></polygon>
                            <polygon id="Fill-3" fill="#22AC7C" points="127.775117 28.981875 142.5184 28.981875 142.5184 0 127.775117 0"></polygon>
                            <polygon id="Fill-4" fill="#22AC7C" points="0.0184291034 28.981875 29.4865654 28.981875 29.4865654 0 0.0184291034 0"></polygon>
                            <polygon id="Fill-5" fill="#22AC7C" points="31.9437792 28.981875 61.4303446 28.981875 61.4303446 0 31.9437792 0"></polygon>
                            <polygon id="Fill-6" fill="#22AC7C" points="63.8875584 28.981875 93.3741238 28.981875 93.3741238 0 63.8875584 0"></polygon>
                            <polygon id="Fill-7" fill="#22AC7C" points="95.8313376 28.981875 125.317903 28.981875 125.317903 0 95.8313376 0"></polygon>
                        </g>
                        <path d="M25.0635806,12.21625 L17.1759244,12.21625 L14.7432827,4.89375 L12.3106411,12.21625 L4.42298481,12.21625 L10.7994546,16.7475 L8.36681294,24.0696979 L14.7432827,19.5384479 L18.6871108,16.7475 L25.0635806,12.21625 Z M14.7432827,19.5384479 L19.2399839,18.415 L21.1197525,24.10625 L14.7432827,19.5384479 L14.7432827,19.5384479 Z" id="Fill-9" fill="#FFFFFE"></path>
                        <path d="M57.0073598,12.21625 L49.1197036,12.21625 L46.6870619,4.89375 L44.2544203,12.21625 L36.366764,12.21625 L42.7432338,16.7475 L40.3105921,24.0696979 L46.6870619,19.5384479 L50.63089,16.7475 L57.0073598,12.21625 Z M46.6870619,19.5384479 L51.1837631,18.415 L53.0635317,24.10625 L46.6870619,19.5384479 L46.6870619,19.5384479 Z" id="Fill-10" fill="#FFFFFE"></path>
                        <path d="M88.951139,12.21625 L81.0634828,12.21625 L78.6308411,4.89375 L76.1981995,12.21625 L68.3105432,12.21625 L74.687013,16.7475 L72.2543713,24.0696979 L78.6308411,19.5384479 L82.5746692,16.7475 L88.951139,12.21625 Z M78.6308411,19.5384479 L83.1275423,18.415 L85.0073109,24.10625 L78.6308411,19.5384479 L78.6308411,19.5384479 Z" id="Fill-11" fill="#FFFFFE"></path>
                        <path d="M120.894918,12.21625 L113.007262,12.21625 L110.57462,4.89375 L108.141979,12.21625 L100.254322,12.21625 L106.630792,16.7475 L104.198151,24.0696979 L110.57462,19.5384479 L114.518448,16.7475 L120.894918,12.21625 Z M110.57462,19.5384479 L115.071322,18.415 L116.95109,24.10625 L110.57462,19.5384479 L110.57462,19.5384479 Z" id="Fill-12" fill="#FFFFFE"></path>
                        <path d="M152.838697,12.21625 L144.951041,12.21625 L142.5184,4.89375 L140.085758,12.21625 L132.198102,12.21625 L138.574571,16.7475 L136.14193,24.0696979 L142.5184,19.5384479 L146.462228,16.7475 L152.838697,12.21625 Z M142.5184,19.5384479 L147.015101,18.415 L148.894869,24.10625 L142.5184,19.5384479 L142.5184,19.5384479 Z" id="Fill-13" fill="#FFFFFE"></path>
                    </g>
                    <g id="Trustpilot_brandmark_gr-blk_RGB" fill-rule="nonzero">
                        <g id="Type" transform="translate(41.158331, 13.362084)" fill="#191919">
                            <path d="M0.0972157248,0.0825482867 L16.0267066,0.0825482867 L16.0267066,3.02677051 L9.76323636,3.02677051 L9.76323636,19.577702 L6.31902211,19.577702 L6.31902211,3.02677051 L0.0833277641,3.02677051 L0.0833277641,0.0825482867 L0.0972157248,0.0825482867 Z M15.3461966,5.46194497 L18.2904442,5.46194497 L18.2904442,8.18603843 L18.3459961,8.18603843 C18.4432118,7.80081309 18.6237553,7.4293458 18.8876265,7.07163656 C19.1514978,6.71392732 19.4709209,6.36997612 19.8458958,6.08105712 C20.2208708,5.77838007 20.6375096,5.54449326 21.0958123,5.35188059 C21.554115,5.17302597 22.0263056,5.07671963 22.4984963,5.07671963 C22.8595833,5.07671963 23.1234545,5.09047768 23.2623342,5.10423573 C23.4012138,5.11799378 23.5400934,5.14550987 23.6928609,5.15926792 L23.6928609,8.15852234 C23.4706536,8.11724819 23.2484462,8.0897321 23.0123509,8.062216 C22.7762555,8.03469991 22.5540482,8.02094186 22.3318408,8.02094186 C21.8040983,8.02094186 21.3041317,8.13100624 20.831941,8.33737696 C20.3597504,8.54374767 19.9569995,8.86018277 19.6098005,9.25916616 C19.2626015,9.67190759 18.9848423,10.1671973 18.7765228,10.7725514 C18.5682034,11.3779055 18.4709877,12.0658079 18.4709877,12.8500166 L18.4709877,19.5639439 L15.3323086,19.5639439 L15.3323086,5.46194497 L15.3461966,5.46194497 Z M38.1224521,19.577702 L35.0393248,19.577702 L35.0393248,17.6103012 L34.983773,17.6103012 C34.5949101,18.3257196 34.0255037,18.8897996 33.2616658,19.3162991 C32.497828,19.7427986 31.7201022,19.9629273 30.9284884,19.9629273 C29.0536138,19.9629273 27.6925936,19.5089118 26.859316,18.5871226 C26.0260383,17.6653334 25.6093995,16.2757705 25.6093995,14.4184341 L25.6093995,5.46194497 L28.7480786,5.46194497 L28.7480786,14.115757 C28.7480786,15.3539813 28.984174,16.2344964 29.4702526,16.7435442 C29.9424432,17.2525919 30.6229533,17.5139948 31.4840069,17.5139948 C32.150629,17.5139948 32.6922595,17.4176885 33.1366742,17.2113178 C33.5810889,17.0049471 33.9421759,16.7435442 34.2060472,16.399593 C34.4838064,16.0693998 34.6782378,15.6566584 34.8032295,15.1888848 C34.9282211,14.7211111 34.983773,14.2120634 34.983773,13.6617414 L34.983773,5.47570302 L38.1224521,5.47570302 L38.1224521,19.577702 Z M43.469317,15.0513043 C43.5665327,15.9593354 43.9137317,16.5922056 44.510914,16.9636729 C45.1219843,17.3213822 45.8441582,17.5139948 46.6913238,17.5139948 C46.982971,17.5139948 47.3162821,17.4864787 47.691257,17.4452046 C48.0662319,17.4039304 48.4273189,17.3076241 48.746742,17.1838017 C49.0800531,17.0599793 49.3439243,16.8673666 49.5661317,16.6197217 C49.7744511,16.3720769 49.8716668,16.0556418 49.8577789,15.6566584 C49.8438909,15.257675 49.6911233,14.9274818 49.4133641,14.679837 C49.1356049,14.4184341 48.7884059,14.2258214 48.3578791,14.0607248 C47.9273523,13.9093863 47.4412737,13.7718058 46.8857553,13.6617414 C46.3302369,13.5516771 45.7747184,13.4278546 45.205312,13.3040322 C44.6220177,13.1802098 44.0526113,13.0151132 43.5109808,12.8362586 C42.9693504,12.657404 42.4832717,12.4097591 42.052745,12.093324 C41.6222182,11.7906469 41.2750192,11.3916636 41.0250359,10.9101319 C40.7611646,10.4286002 40.636173,9.83700416 40.636173,9.12158568 C40.636173,8.351135 40.8306044,7.71826481 41.2055794,7.19545899 C41.5805543,6.67265317 42.0666329,6.25991174 42.6360393,5.94347664 C43.2193337,5.62704154 43.8581798,5.40691278 44.5664658,5.2693323 C45.2747518,5.14550987 45.9552619,5.07671963 46.5941081,5.07671963 C47.33017,5.07671963 48.038456,5.15926792 48.7050781,5.31060644 C49.3717002,5.46194497 49.9827705,5.70958983 50.524401,6.06729907 C51.0660314,6.41125027 51.5104462,6.86526584 51.8715332,7.41558775 C52.2326201,7.96590967 52.4548275,8.64005401 52.5520432,9.42426273 L49.2744845,9.42426273 C49.1217169,8.68132815 48.7884059,8.17228038 48.2467754,7.92463552 C47.705145,7.66323262 47.0801867,7.53941019 46.3857887,7.53941019 C46.1635813,7.53941019 45.8997101,7.55316823 45.5941749,7.59444238 C45.2886398,7.63571652 45.0108806,7.70450676 44.7331214,7.80081309 C44.4692501,7.89711943 44.2470427,8.04845795 44.0526113,8.24107062 C43.8720678,8.43368329 43.7748521,8.68132815 43.7748521,8.99776325 C43.7748521,9.38298859 43.9137317,9.68566564 44.1776029,9.91955245 C44.4414742,10.1534393 44.7886732,10.3460519 45.2192,10.5111485 C45.6497268,10.662487 46.1358054,10.8000675 46.6913238,10.9101319 C47.2468423,11.0201963 47.8162486,11.1440187 48.399543,11.2678411 C48.9689494,11.3916636 49.5244678,11.5567601 50.0799862,11.7356148 C50.6355047,11.9144694 51.1215833,12.1621142 51.5521101,12.4785493 C51.9826369,12.7949844 52.3298359,13.1802098 52.5937071,13.6479834 C52.8575784,14.115757 52.996458,14.7073531 52.996458,15.3952555 C52.996458,16.2344964 52.8020265,16.9361568 52.4131636,17.5277529 C52.0243007,18.1055909 51.5243341,18.5871226 50.9132639,18.9448318 C50.3021936,19.302541 49.6077956,19.577702 48.8578457,19.7427986 C48.1078958,19.9078951 47.3579459,19.9904434 46.621884,19.9904434 C45.7191666,19.9904434 44.8858889,19.8941371 44.1220511,19.6877664 C43.3582133,19.4813957 42.6915912,19.1787186 42.1360727,18.7797352 C41.5805543,18.3669938 41.1361396,17.857946 40.8167165,17.2525919 C40.4972934,16.6472378 40.3306378,15.9180613 40.3028619,15.0788204 L43.469317,15.0788204 L43.469317,15.0513043 Z M53.8297356,5.46194497 L56.2045769,5.46194497 L56.2045769,1.22446625 L59.343256,1.22446625 L59.343256,5.46194497 L62.1764,5.46194497 L62.1764,7.78705505 L59.343256,7.78705505 L59.343256,15.3264652 C59.343256,15.6566584 59.357144,15.9318193 59.3849199,16.1794642 C59.4126958,16.413351 59.4821356,16.6197217 59.5793513,16.7848183 C59.6765671,16.9499149 59.8293346,17.0737373 60.037654,17.1562856 C60.2459735,17.2388339 60.5098447,17.280108 60.8709317,17.280108 C61.0931391,17.280108 61.3153464,17.280108 61.5375538,17.26635 C61.7597612,17.2525919 61.9819685,17.2250758 62.2041759,17.1700436 L62.2041759,19.577702 C61.8569769,19.6189761 61.5097779,19.6464922 61.1903548,19.6877664 C60.8570437,19.7290405 60.5237327,19.7427986 60.1765337,19.7427986 C59.343256,19.7427986 58.6766339,19.6602503 58.1766673,19.5089118 C57.6767007,19.3575732 57.2739499,19.1236864 56.9961907,18.8210094 C56.7045435,18.5183323 56.524,18.146865 56.4128963,17.6928494 C56.3156806,17.2388339 56.2462408,16.7160281 56.2323528,16.13819 L56.2323528,7.81457114 L53.8575115,7.81457114 L53.8575115,5.46194497 L53.8297356,5.46194497 Z M64.3984737,5.46194497 L67.3704973,5.46194497 L67.3704973,7.37431361 L67.4260491,7.37431361 C67.8704639,6.54883074 68.4815341,5.97099274 69.2731479,5.6132835 C70.0647617,5.25557425 70.9119273,5.07671963 71.8424206,5.07671963 C72.9673454,5.07671963 73.9395027,5.2693323 74.7727803,5.66831569 C75.606058,6.05354102 76.300456,6.59010489 76.8559744,7.27800728 C77.4114929,7.96590967 77.8142437,8.76387644 78.0920029,9.67190759 C78.3697622,10.5799387 78.5086418,11.5567601 78.5086418,12.5886137 C78.5086418,13.537919 78.3836501,14.4597082 78.1336668,15.3402233 C77.8836835,16.2344964 77.5087086,17.0187051 77.008742,17.7066075 C76.5087754,18.3945099 75.8699292,18.9310737 75.0922034,19.3438152 C74.3144776,19.7565566 73.4117602,19.9629273 72.3562752,19.9629273 C71.8979725,19.9629273 71.4396698,19.9216532 70.9813671,19.8391049 C70.5230644,19.7565566 70.0786496,19.6189761 69.6620108,19.4401215 C69.245372,19.2612669 68.8426211,19.0273801 68.4954221,18.7384611 C68.1343351,18.4495421 67.842688,18.1193489 67.5927047,17.7478816 L67.5371528,17.7478816 L67.5371528,24.7920021 L64.3984737,24.7920021 L64.3984737,5.46194497 L64.3984737,5.46194497 Z M75.3699626,12.5335815 C75.3699626,11.9007113 75.2866349,11.2815992 75.1199794,10.6762451 C74.9533238,10.070891 74.7033405,9.54808516 74.3700295,9.08031154 C74.0367184,8.61253791 73.6200796,8.24107062 73.134001,7.96590967 C72.6340344,7.69074871 72.064628,7.53941019 71.4257818,7.53941019 C70.1064255,7.53941019 69.1064924,7.99342576 68.4398703,8.90145692 C67.7732482,9.80948807 67.4399371,11.0201963 67.4399371,12.5335815 C67.4399371,13.249 67.5232649,13.9093863 67.7038083,14.5147404 C67.8843518,15.1200945 68.1343351,15.6429003 68.4954221,16.0831579 C68.8426211,16.5234154 69.2592599,16.8673666 69.7453386,17.1150114 C70.2314172,17.3764143 70.8008236,17.5002368 71.4396698,17.5002368 C72.1618437,17.5002368 72.759026,17.3488983 73.2589926,17.0599793 C73.7589592,16.7710602 74.1617101,16.3858349 74.4811332,15.9318193 C74.8005563,15.4640457 75.0366516,14.9412399 75.1755312,14.3496438 C75.3005228,13.7580478 75.3699626,13.1526937 75.3699626,12.5335815 Z M80.911259,0.0825482867 L84.0499381,0.0825482867 L84.0499381,3.02677051 L80.911259,3.02677051 L80.911259,0.0825482867 Z M80.911259,5.46194497 L84.0499381,5.46194497 L84.0499381,19.577702 L80.911259,19.577702 L80.911259,5.46194497 Z M86.8553061,0.0825482867 L89.9939853,0.0825482867 L89.9939853,19.577702 L86.8553061,19.577702 L86.8553061,0.0825482867 Z M99.618342,19.9629273 C98.4795292,19.9629273 97.4657081,19.7703147 96.5768786,19.3988474 C95.6880491,19.0273801 94.9380993,18.5045743 94.313141,17.857946 C93.7020708,17.1975597 93.2298801,16.413351 92.910457,15.5053199 C92.5910339,14.5972887 92.4243784,13.5929512 92.4243784,12.5060654 C92.4243784,11.4329377 92.5910339,10.4423583 92.910457,9.53432711 C93.2298801,8.62629596 93.7020708,7.84208724 94.313141,7.18170094 C94.9242113,6.52131465 95.6880491,6.01226688 96.5768786,5.64079959 C97.4657081,5.2693323 98.4795292,5.07671963 99.618342,5.07671963 C100.757155,5.07671963 101.770976,5.2693323 102.659805,5.64079959 C103.548635,6.01226688 104.298585,6.5350727 104.923543,7.18170094 C105.534613,7.84208724 106.006804,8.62629596 106.326227,9.53432711 C106.64565,10.4423583 106.812306,11.4329377 106.812306,12.5060654 C106.812306,13.5929512 106.64565,14.5972887 106.326227,15.5053199 C106.006804,16.413351 105.534613,17.1975597 104.923543,17.857946 C104.312473,18.5183323 103.548635,19.0273801 102.659805,19.3988474 C101.770976,19.7703147 100.757155,19.9629273 99.618342,19.9629273 Z M99.618342,17.5002368 C100.31274,17.5002368 100.92381,17.3488983 101.437665,17.0599793 C101.951519,16.7710602 102.368158,16.3858349 102.701469,15.9180613 C103.03478,15.4502877 103.270876,14.9137238 103.437531,14.3221277 C103.590299,13.7305317 103.673627,13.1251776 103.673627,12.5060654 C103.673627,11.9007113 103.590299,11.3091153 103.437531,10.7037612 C103.284764,10.0984071 103.03478,9.57560126 102.701469,9.10782763 C102.368158,8.64005401 101.951519,8.26858672 101.437665,7.97966771 C100.92381,7.69074871 100.31274,7.53941019 99.618342,7.53941019 C98.923944,7.53941019 98.3128737,7.69074871 97.7990192,7.97966771 C97.2851646,8.26858672 96.8685258,8.65381206 96.5352147,9.10782763 C96.2019037,9.57560126 95.9658083,10.0984071 95.7991528,10.7037612 C95.6463853,11.3091153 95.5630575,11.9007113 95.5630575,12.5060654 C95.5630575,13.1251776 95.6463853,13.7305317 95.7991528,14.3221277 C95.9519204,14.9137238 96.2019037,15.4502877 96.5352147,15.9180613 C96.8685258,16.3858349 97.2851646,16.7710602 97.7990192,17.0599793 C98.3128737,17.3626563 98.923944,17.5002368 99.618342,17.5002368 Z M107.728911,5.46194497 L110.103752,5.46194497 L110.103752,1.22446625 L113.242431,1.22446625 L113.242431,5.46194497 L116.075575,5.46194497 L116.075575,7.78705505 L113.242431,7.78705505 L113.242431,15.3264652 C113.242431,15.6566584 113.256319,15.9318193 113.284095,16.1794642 C113.311871,16.413351 113.381311,16.6197217 113.478527,16.7848183 C113.575742,16.9499149 113.72851,17.0737373 113.936829,17.1562856 C114.145149,17.2388339 114.40902,17.280108 114.770107,17.280108 C114.992314,17.280108 115.214522,17.280108 115.436729,17.26635 C115.658937,17.2525919 115.881144,17.2250758 116.103351,17.1700436 L116.103351,19.577702 C115.756152,19.6189761 115.408953,19.6464922 115.08953,19.6877664 C114.756219,19.7290405 114.422908,19.7427986 114.075709,19.7427986 C113.242431,19.7427986 112.575809,19.6602503 112.075843,19.5089118 C111.575876,19.3575732 111.173125,19.1236864 110.895366,18.8210094 C110.603719,18.5183323 110.423175,18.146865 110.312072,17.6928494 C110.214856,17.2388339 110.145416,16.7160281 110.131528,16.13819 L110.131528,7.81457114 L107.756687,7.81457114 L107.756687,5.46194497 L107.728911,5.46194497 Z" id="Shape"></path>
                        </g>
                        <g id="Star">
                            <polygon id="Path" fill="#00B67A" points="37.6824349 13.5789005 23.2928283 13.5789005 18.8481622 0 14.3896065 13.5789005 0 13.5651288 11.653359 21.9658685 7.19480327 35.5309973 18.8481622 27.1440293 30.4876316 35.5309973 26.0429655 21.9658685 37.6824349 13.5789005 37.6824349 13.5789005"></polygon>
                            <polygon id="Path" fill="#005128" points="27.0430154 25.0369586 26.0429655 21.9658685 18.8481622 27.1440293"></polygon>
                        </g>
                    </g>
                </g>
            </g>
        </g>
    </g>
</svg>