<?xml version="1.0" encoding="UTF-8"?>
<svg width="135px" height="107px" viewBox="0 0 135 107" version="1.1" xmlns="http://www.w3.org/2000/svg" xmlns:xlink="http://www.w3.org/1999/xlink">
    <title>1D8B4469-70E0-441F-8F49-D538AB4E05E1</title>
    <defs>
        <polygon id="path-1" points="0.0026848717 0.515069173 72.9960116 0.515069173 72.9960116 74 0.0026848717 74"></polygon>
        <polygon id="path-3" points="0.112841013 0.0190248227 73.5412242 0.0190248227 73.5412242 73.5055733 0.112841013 73.5055733"></polygon>
    </defs>
    <g id="Page-1" stroke="none" stroke-width="1" fill="none" fill-rule="evenodd">
        <g id="0189_LES_Water-Improvements_Desktop" transform="translate(-1456.000000, -899.000000)">
            <g id="Group-7" transform="translate(1456.000000, 899.000000)">
                <g id="Group-3" transform="translate(0.000000, 33.000000)">
                    <mask id="mask-2" fill="white">
                        <use xlink:href="#path-1"></use>
                    </mask>
                    <g id="Clip-2"></g>
                    <path d="M36.4930476,31.4243493 C33.4120565,31.4243493 30.8414137,33.8785514 30.7091012,37.0113056 C30.6397946,38.5649994 31.1816458,40.0552772 32.2275446,41.2031082 C33.2734435,42.3509391 34.7099792,43.0231495 36.253625,43.0865656 C37.8035714,43.1563233 39.2779107,42.610945 40.4183185,41.5518966 C41.5650268,40.4991897 42.2202887,39.0659864 42.2895952,37.5059509 C42.4219077,34.2907559 39.9394732,31.5638647 36.7450714,31.4306909 C36.6568631,31.4243493 36.581256,31.4243493 36.4930476,31.4243493 M36.5119494,47.3925171 C36.3607351,47.3925171 36.2158214,47.3925171 36.0772083,47.3861755 C33.3868542,47.2720266 30.9044196,46.1051708 29.0835476,44.113906 C27.2626756,42.1226413 26.3301875,39.5352654 26.4372976,36.8273989 C26.6704196,31.2467843 31.3769643,26.9027831 36.9214881,27.131081 C42.4723125,27.3720621 46.7945208,32.1029013 46.5613988,37.6898576 C46.4416875,40.3913824 45.2886786,42.8899758 43.3102917,44.7227004 C41.4390149,46.4539592 39.0321875,47.3925171 36.5119494,47.3925171 M38.7045565,62.358711 C39.429125,62.358711 40.1095893,62.7328658 40.5065268,63.3543434 L44.2679821,69.3217961 L47.4749851,68.3578717 L47.3615744,61.2933209 C47.3489732,60.4942784 47.7711131,59.7523103 48.4704792,59.3718138 C51.1923363,57.8815361 53.5802619,55.9283209 55.57125,53.5629013 C56.0878988,52.954107 56.894375,52.6814178 57.6693482,52.8526413 L64.5243958,54.3936519 L66.1058452,51.4257796 L61.0590685,46.5173753 C60.4920149,45.9593138 60.271494,45.1285632 60.4983155,44.3675703 C61.3677976,41.36799 61.6828274,38.2859687 61.4308036,35.1976058 C61.361497,34.3985632 61.7458333,33.6312287 62.4136964,33.1999994 L68.3488571,29.4077181 L67.3848661,26.1798398 L60.3408006,26.3003304 L60.302997,26.3003304 C59.5280238,26.3003304 58.809756,25.8754427 58.4317202,25.1842074 C56.9510804,22.4636578 55.010497,20.0665301 52.6729762,18.0752654 C52.068119,17.5552535 51.7971935,16.7435278 51.9673095,15.96351 L53.5046548,9.03213298 L50.5559762,7.43404787 L45.6478125,12.5453836 C45.0996607,13.1224699 44.2742827,13.3444261 43.5119107,13.1161283 C40.5569315,12.247328 37.5074435,11.9302476 34.4579554,12.1902535 C33.6640804,12.2536696 32.9017083,11.8731732 32.4732679,11.2009628 L28.6866101,5.18911879 L25.4859077,6.15938475 L25.5993185,13.2873517 C25.6119196,14.0863942 25.1897798,14.8220207 24.4967143,15.2025171 C21.7937589,16.6927949 19.4247351,18.6333268 17.4463482,20.9797216 C16.936,21.588516 16.1295238,21.8612051 15.3545506,21.6836401 L8.44909821,20.1362878 L6.86134821,23.1041602 L11.9459286,28.0506141 C12.5129821,28.6023339 12.733503,29.4330845 12.5066815,30.200419 C11.6435,33.1873162 11.3284702,36.2693375 11.580494,39.3513587 C11.6498006,40.1440597 11.2654643,40.9113942 10.5976012,41.3362819 L4.64353869,45.1412465 L5.60752976,48.3691247 L12.670497,48.2486342 C13.4454702,48.2169261 14.1952411,48.6671803 14.5732768,49.3647571 C16.0602173,52.0916483 17.9945,54.4824344 20.344622,56.4863824 C20.9494792,57.0000526 21.2204048,57.8117784 21.0502887,58.5917961 L19.519244,65.4978067 L22.461622,67.0958918 L27.3571845,61.9972394 C27.9116369,61.4264947 28.7307143,61.2045384 29.4930863,61.4264947 C32.4417649,62.3016365 35.4849524,62.6123753 38.5281399,62.3650526 C38.5848452,62.358711 38.6478512,62.358711 38.7045565,62.358711 M43.335494,74.0019025 C42.6235268,74.0019025 41.9304613,73.6340892 41.5335238,73.0062701 L37.57675,66.7280786 C34.8737946,66.8295443 32.1834405,66.5505136 29.5497917,65.897328 L24.408506,71.2496448 C23.7469435,71.9472216 22.7073452,72.1057618 21.8630655,71.6491661 L16.0665179,68.5100703 C15.2222381,68.0534746 14.787497,67.0895502 14.9954167,66.1509923 L16.6020685,58.8961933 C14.6110804,57.0317606 12.8973185,54.9136637 11.4796845,52.5672689 L4.06388393,52.6941011 L4.02608036,52.6941011 C3.08099107,52.6941011 2.2493125,52.0726235 1.9783869,51.159432 L0.0945089286,44.8178245 C-0.182717262,43.8982914 0.182717262,42.902659 0.989193452,42.3889888 L7.23938393,38.3874344 C7.144875,35.6542015 7.42210119,32.9273103 8.0710625,30.2574935 L2.73445833,25.0637169 C2.04139286,24.3915065 1.88387798,23.3451413 2.33122024,22.4953658 L5.45001488,16.6610869 C5.90995833,15.8176531 6.86764881,15.3737405 7.8001369,15.5830136 L15.0584226,17.2128067 C16.8981964,15.221542 18.989994,13.5029663 21.3086131,12.0887878 L21.1826012,4.6056909 C21.1636994,3.64176655 21.7874583,2.78564953 22.7073452,2.50661879 L29.0142411,0.604136525 C29.9278274,0.3314474 30.9107202,0.699260638 31.427369,1.51098641 L35.4093452,7.82088593 C38.1186012,7.71942021 40.815256,7.99845095 43.4489048,8.65163652 L48.6153929,3.28029492 C49.2769554,2.58271809 50.3165536,2.4241779 51.1608333,2.88077364 L56.957381,6.01986939 C57.8016607,6.47646513 58.2364018,7.44038948 58.0284821,8.3789474 L56.4155298,15.6654545 C58.4065179,17.5235455 60.1202798,19.6416424 61.5316131,21.9816956 L68.9285119,21.8548635 C69.8862024,21.8231554 70.7430833,22.4636578 71.0140089,23.3895325 L72.9041875,29.7311401 C73.1814137,30.6570148 72.8159792,31.6526472 72.009503,32.1663174 L65.7656131,36.1551885 C65.8727232,38.894763 65.595497,41.6279959 64.9402351,44.3041543 L70.2390357,49.4662228 C70.9321012,50.1384332 71.0896161,51.1847985 70.6359732,52.0345739 L67.5171786,57.8625112 C67.0635357,58.7122866 66.0995446,59.1498576 65.1733571,58.9469261 L57.9654762,57.3234746 C56.1068006,59.3401058 53.9898006,61.0713647 51.6522798,62.4918848 L51.7782917,69.9115656 C51.7908929,70.87549 51.1671339,71.731607 50.2535476,72.0042961 L43.9529524,73.9067784 C43.7450327,73.9701944 43.5371131,74.0019025 43.335494,74.0019025" id="Fill-1" fill="#575756" mask="url(#mask-2)"></path>
                </g>
                <g id="Group-6" transform="translate(61.000000, 0.000000)">
                    <mask id="mask-4" fill="white">
                        <use xlink:href="#path-3"></use>
                    </mask>
                    <g id="Clip-5"></g>
                    <path d="M36.5803921,42.5902364 C39.8002197,42.7360934 42.5193261,40.2248168 42.6524292,37.0096217 C42.7221499,35.4559279 42.177061,33.9656501 41.1249126,32.8114775 C40.0727642,31.6699882 38.6276447,30.9977778 37.0747751,30.9343617 C35.5155673,30.864604 34.0324183,31.4099823 32.8851963,32.4626891 C31.7379742,33.5217376 31.0724587,34.9549409 31.002738,36.5149764 C30.8696349,39.7301714 33.3669028,42.4570626 36.5803921,42.5902364 M36.8339219,46.8961879 C36.6944805,46.8961879 36.5423627,46.8961879 36.4029213,46.8898463 C30.818929,46.6488652 26.4708941,41.918026 26.7054091,36.3310697 C26.8258357,33.6295449 27.9857342,31.1309515 29.9759426,29.298227 C31.966151,27.471844 34.5521543,26.5332861 37.2522459,26.6347518 C39.9586758,26.7489007 42.4559437,27.9157565 44.287696,29.9070213 C46.1194483,31.8982861 47.0575083,34.4856619 46.9497582,37.1935284 C46.7215815,42.6282861 42.2214287,46.8961879 36.8339219,46.8961879 M39.0459688,61.8623818 C39.781205,61.8623818 40.4593971,62.2365366 40.8587064,62.8580142 L44.6426376,68.8254669 L47.8688035,67.8615426 L47.7547151,60.8033333 C47.7420386,59.9979492 48.1730392,59.2559811 48.8702459,58.8754846 C51.608367,57.3852069 54.0105613,55.4319917 56.0197844,53.0665721 C56.5331821,52.4577778 57.3444773,52.1850887 58.1240812,52.3563121 L65.0200899,53.8973227 L66.6173272,50.9294504 L61.5403943,46.0210461 C60.9636142,45.4629846 60.7481139,44.632234 60.9699524,43.8648995 C61.8509682,40.8716608 62.1678804,37.7896395 61.9080124,34.7012766 C61.8382918,33.902234 62.2249246,33.1348995 62.8967784,32.7036702 L68.8737418,28.9113889 L67.8976524,25.6835106 L60.8114963,25.8103428 L60.7734669,25.8103428 C59.993863,25.8103428 59.2713032,25.3791135 58.8973469,24.6878783 C57.4015214,21.9673286 55.4556807,19.5765426 53.0978542,17.5725946 C52.4893829,17.0589243 52.2168384,16.2471986 52.3943092,15.4671809 L53.9345023,8.53580378 L50.9745427,6.93771868 L46.0307129,12.055396 C45.4792858,12.6261407 44.6489759,12.8480969 43.8820484,12.6197991 C40.9094123,11.7509988 37.8417026,11.44026 34.7739928,11.6939243 C33.9753741,11.7573404 33.2147849,11.376844 32.7774462,10.7046336 L28.9745002,4.6927896 L25.7483343,5.66305556 L25.8687609,12.7910225 C25.8814374,13.5837234 25.4504369,14.3256915 24.7532301,14.7125296 C22.040462,16.1964657 19.6509442,18.1369976 17.6607358,20.4833924 C17.1473381,21.0921868 16.336043,21.3648759 15.5564391,21.1873109 L8.60972439,19.6399586 L7.01248707,22.607831 L12.1337877,27.5542849 C12.6978913,28.1060047 12.9260681,28.9367553 12.6915531,29.7040898 C11.8232137,32.690987 11.5063016,35.7666667 11.7598313,38.8550296 C11.829552,39.6477305 11.4429191,40.415065 10.7710654,40.8462943 L4.78142542,44.6449173 L5.75751489,47.8727955 L12.8563474,47.752305 C13.6676426,47.7142553 14.3902023,48.1708511 14.7768351,48.8684279 C16.2663223,51.5953191 18.2185013,53.9861052 20.5763278,55.9900532 C21.1847991,56.5037234 21.4573436,57.3154492 21.286211,58.0954669 L19.7460179,65.0014775 L22.7123158,66.5995626 L27.6307926,61.5009102 C28.188558,60.9301655 29.0125296,60.7082092 29.7794571,60.9365071 C32.7520932,61.8053073 35.8071265,62.1223877 38.868498,61.8687234 C38.9318804,61.8687234 38.9889246,61.8623818 39.0459688,61.8623818 M43.7045776,73.5055733 C42.9883561,73.5055733 42.2911494,73.13776 41.89184,72.5035993 L37.9114232,66.2317494 C35.1923169,66.3332151 32.485887,66.0541844 29.8428395,65.4009988 L24.6644947,70.7533156 C23.9989792,71.4508924 22.953169,71.6094326 22.1038444,71.1528369 L16.2726606,68.0137411 C15.423336,67.5571454 14.9859972,66.593221 15.1951592,65.6546631 L16.8177495,58.3998641 C14.8085264,56.5354314 13.0845242,54.4173345 11.6584194,52.0772813 L4.19830704,52.1977719 L4.16027758,52.1977719 C3.20954108,52.1977719 2.37923121,51.5762943 2.10668674,50.6631028 L0.205213748,44.3214953 C-0.073668958,43.3956206 0.293949154,42.4063298 1.1052443,41.8926596 L7.39911991,37.8911052 C7.29770802,35.1578723 7.57659073,32.4309811 8.22942979,29.7675059 L2.8609377,24.5673877 C2.16373093,23.8951773 2.00527485,22.8488121 2.45529013,21.9990366 L5.59905881,16.1647577 C6.05541233,15.3213239 7.01882531,14.8774113 7.95688532,15.093026 L15.2585416,16.7164775 C17.1093087,14.7252128 19.2199437,13.0066371 21.546079,11.5924586 L21.4193141,4.1093617 C21.4002994,3.14543735 22.0341237,2.28932033 22.9595073,2.0102896 L29.2977506,0.107807329 C30.2167959,-0.164881797 31.2055618,0.202931442 31.7252978,1.01465721 L35.7310675,7.32455674 C38.4565122,7.22309102 41.1692803,7.50212175 43.8250043,8.15530733 L49.0160255,2.78396572 C49.6815411,2.08638889 50.7336895,1.92150709 51.5766758,2.38444444 L57.4078597,5.52354019 C58.2571843,5.98013593 58.6945231,6.94406028 58.485361,7.8826182 L56.8627708,15.1691253 C58.8656556,17.0272163 60.5896578,19.1453132 62.0094243,21.4853664 L69.4568602,21.3585343 L69.4948897,21.3585343 C70.4456262,21.3585343 71.2822743,21.9800118 71.5548188,22.8932033 L73.4499535,29.2411525 C73.7288362,30.1606856 73.3612181,31.156318 72.549923,31.6699882 L66.2750621,35.6588593 C66.376474,38.3984338 66.0975913,41.1316667 65.438414,43.8078251 L70.7752148,48.9698936 C71.4660834,49.642104 71.6245394,50.6884693 71.1681859,51.5382447 L68.0307555,57.3725236 C67.5807402,58.2159574 66.610989,58.65987 65.672929,58.4442553 L58.4219786,56.833487 C56.5521968,58.8437766 54.4225471,60.5750355 52.0710588,61.9955556 L52.1978237,69.4152364 C52.2105002,70.3791608 51.5830141,71.2352778 50.6639688,71.5143085 L44.3257255,73.4104492 C44.1165634,73.4738652 43.9074014,73.5055733 43.7045776,73.5055733" id="Fill-4" fill="#00AEEF" mask="url(#mask-4)"></path>
                </g>
            </g>
        </g>
    </g>
</svg>