<?xml version="1.0" encoding="UTF-8"?>
<svg width="97px" height="97px" viewBox="0 0 97 97" version="1.1" xmlns="http://www.w3.org/2000/svg" xmlns:xlink="http://www.w3.org/1999/xlink">
    <title>965B9622-AB67-46C7-95D9-E0BA63B2C686</title>
    <g id="Page-1" stroke="none" stroke-width="1" fill="none" fill-rule="evenodd">
        <g id="0189_LES_Water-Improvements_Desktop" transform="translate(-1099.000000, -909.000000)">
            <g id="Group-5" transform="translate(1099.000000, 909.000000)">
                <path d="M48.5046711,5.27833959 C24.6727343,5.27833959 5.27833959,24.6727343 5.27833959,48.4953289 C5.27833959,72.3366079 24.6727343,91.7216604 48.5046711,91.7216604 C72.3366079,91.7216604 91.7310026,72.3366079 91.7310026,48.4953289 C91.7310026,24.6727343 72.3366079,5.27833959 48.5046711,5.27833959 M48.5046711,97 C21.7579698,97 0,75.2420302 0,48.4953289 C0,21.7579698 21.7579698,0 48.5046711,0 C75.2420302,0 97,21.7579698 97,48.4953289 C97,75.2420302 75.2420302,97 48.5046711,97" id="Fill-1" fill="#00AEEF"></path>
                <path d="M46.3990117,64 C45.8001361,64 45.1825456,63.7957166 44.6866018,63.3778643 L26.9355548,48.4744646 C25.8220205,47.5366182 25.6816591,45.8744945 26.6267596,44.7695073 C27.5625027,43.66452 29.2374829,43.5252359 30.3510172,44.4630822 L46.2492928,57.8064999 L70.475682,33.7660626 C71.5143569,32.7446458 73.1893371,32.7446458 74.2280119,33.7660626 C75.2573294,34.7874794 75.2573294,36.4496031 74.2280119,37.4803055 L48.2611405,63.2292946 C47.7558392,63.740003 47.0727467,64 46.3990117,64" id="Fill-3" fill="#505050"></path>
            </g>
        </g>
    </g>
</svg>