<?xml version="1.0" encoding="UTF-8"?>
<svg width="86px" height="102px" viewBox="0 0 86 102" version="1.1" xmlns="http://www.w3.org/2000/svg" xmlns:xlink="http://www.w3.org/1999/xlink">
    <title>157A8F92-746C-479A-B285-980E14DE1C9E</title>
    <defs>
        <polygon id="path-1" points="0.0037625 0.735473684 85.4555125 0.735473684 85.4555125 101.996779 0.0037625 101.996779"></polygon>
    </defs>
    <g id="Page-1" stroke="none" stroke-width="1" fill="none" fill-rule="evenodd">
        <g id="0189_LES_Water-Improvements_Desktop" transform="translate(-730.000000, -904.000000)">
            <g id="Group-16" transform="translate(730.000000, 904.000000)">
                <path d="M29.5093333,27.9125 L52.496,27.9125 C53.328,27.9125 54,27.2825 54,26.4975 C54,25.7175 53.328,25.0875 52.496,25.0875 L29.5093333,25.0875 C28.6773333,25.0875 28,25.7175 28,26.4975 C28,27.2825 28.6773333,27.9125 29.5093333,27.9125" id="Fill-1" fill="#575756"></path>
                <path d="M17.5382176,39.9125 L62.4672178,39.9125 C63.3151398,39.9125 64,39.2825 64,38.5025 C64,37.7225 63.3151398,37.0875 62.4672178,37.0875 L17.5382176,37.0875 C16.6902955,37.0875 16,37.7225 16,38.5025 C16,39.2825 16.6902955,39.9125 17.5382176,39.9125" id="Fill-3" fill="#575756"></path>
                <path d="M17.5382176,47.9125 L62.4672178,47.9125 C63.3151398,47.9125 64,47.2825 64,46.4975 C64,45.7175 63.3151398,45.0875 62.4672178,45.0875 L17.5382176,45.0875 C16.6902955,45.0875 16,45.7175 16,46.4975 C16,47.2825 16.6902955,47.9125 17.5382176,47.9125" id="Fill-5" fill="#575756"></path>
                <path d="M17.5380435,62.9125 L62.4619565,62.9125 C63.3097826,62.9125 64,62.2825 64,61.4975 C64,60.7175 63.3097826,60.0875 62.4619565,60.0875 L17.5380435,60.0875 C16.6902174,60.0875 16,60.7175 16,61.4975 C16,62.2825 16.6902174,62.9125 17.5380435,62.9125" id="Fill-7" fill="#575756"></path>
                <g id="Group-11">
                    <mask id="mask-2" fill="white">
                        <use xlink:href="#path-1"></use>
                    </mask>
                    <g id="Clip-10"></g>
                    <path d="M82.4186375,95.1735158 C82.4186375,97.2672 80.7147625,98.9636211 78.6185125,98.9636211 L14.8226375,98.9636211 C12.7317625,98.9636211 11.0278875,97.2672 11.0278875,95.1735158 L11.0278875,94.7977263 L70.6312625,94.7977263 C74.3991375,94.7977263 77.4682625,91.7323579 77.4682625,87.9637263 L77.4682625,10.9752 L78.6185125,10.9752 C80.7147625,10.9752 82.4186375,12.6769895 82.4186375,14.7653053 L82.4186375,95.1735158 Z M3.0352625,87.9637263 L3.0352625,26.5221474 L15.5805125,26.5221474 C19.3537625,26.5221474 22.4175125,23.4621474 22.4175125,19.6988842 L22.4175125,4.81225263 L23.4280125,3.77077895 L70.6312625,3.77077895 C72.7275125,3.77077895 74.4313875,5.47256842 74.4313875,7.56088421 L74.4313875,87.9637263 C74.4313875,90.0574105 72.7275125,91.7592 70.6312625,91.7592 L6.8353875,91.7592 C4.7391375,91.7592 3.0352625,90.0574105 3.0352625,87.9637263 L3.0352625,87.9637263 Z M19.3806375,7.95277895 L19.3806375,19.6988842 C19.3806375,21.7872 17.6767625,23.4889895 15.5805125,23.4889895 L4.3628875,23.4889895 L19.3806375,7.95277895 Z M78.6185125,7.93667368 L77.4682625,7.93667368 L77.4682625,7.56088421 C77.4682625,3.79762105 74.3991375,0.732252632 70.6312625,0.732252632 L22.7830125,0.732252632 C22.3745125,0.732252632 21.9767625,0.898673684 21.6918875,1.19930526 L0.4283875,23.1937263 C0.1542625,23.4782526 0.0037625,23.8540421 0.0037625,24.2513053 L0.0037625,87.9637263 C0.0037625,91.7323579 3.0675125,94.7977263 6.8353875,94.7977263 L7.9910125,94.7977263 L7.9910125,95.1735158 C7.9910125,98.9367789 11.0547625,101.996779 14.8226375,101.996779 L78.6185125,101.996779 C82.3917625,101.996779 85.4555125,98.9367789 85.4555125,95.1735158 L85.4555125,14.7653053 C85.4555125,11.0020421 82.3917625,7.93667368 78.6185125,7.93667368 L78.6185125,7.93667368 Z" id="Fill-9" fill="#00AEEF" mask="url(#mask-2)"></path>
                </g>
                <path d="M62.4619565,70.9125 C63.3097826,70.9125 64,70.2825 64,69.4975 C64,68.7225 63.3097826,68.0875 62.4619565,68.0875 L17.5380435,68.0875 C16.6902174,68.0875 16,68.7225 16,69.4975 C16,70.2825 16.6902174,70.9125 17.5380435,70.9125 L62.4619565,70.9125 Z" id="Fill-12" fill="#575756"></path>
                <path d="M62.4617824,76.0875 L17.5327822,76.0875 C16.6848602,76.0875 16,76.7225 16,77.4975 C16,78.2775 16.6848602,78.9125 17.5327822,78.9125 L62.4617824,78.9125 C63.3097045,78.9125 64,78.2775 64,77.4975 C64,76.7225 63.3097045,76.0875 62.4617824,76.0875" id="Fill-14" fill="#575756"></path>
            </g>
        </g>
    </g>
</svg>