<?xml version="1.0" encoding="UTF-8"?>
<svg width="110px" height="97px" viewBox="0 0 110 97" version="1.1" xmlns="http://www.w3.org/2000/svg" xmlns:xlink="http://www.w3.org/1999/xlink">
    <title>E6A5BA4B-D8EC-4D0C-9168-9E6EAC18947A</title>
    <g id="Page-1" stroke="none" stroke-width="1" fill="none" fill-rule="evenodd">
        <g id="0189_LES_Water-Improvements_Desktop" transform="translate(-342.000000, -909.000000)">
            <g id="Group-19" transform="translate(342.000000, 909.000000)">
                <text id="£" font-family="OpenSans-Bold, Open Sans" font-size="36" font-weight="bold" letter-spacing="-0.137454546" fill="#575756">
                    <tspan x="44.7943132" y="62">£</tspan>
                </text>
                <path d="M55.5046711,5.27833959 C31.6727343,5.27833959 12.2783396,24.6727343 12.2783396,48.4953289 C12.2783396,72.3366079 31.6727343,91.7216604 55.5046711,91.7216604 C79.3366079,91.7216604 98.7310026,72.3366079 98.7310026,48.4953289 C98.7310026,24.6727343 79.3366079,5.27833959 55.5046711,5.27833959 M55.5046711,97 C28.7579698,97 7,75.2420302 7,48.4953289 C7,21.7579698 28.7579698,0 55.5046711,0 C82.2420302,0 104,21.7579698 104,48.4953289 C104,75.2420302 82.2420302,97 55.5046711,97" id="Fill-1" fill="#00AEEF"></path>
            </g>
        </g>
    </g>
</svg>